<?xml version="1.0" standalone="no"?>
<!DOCTYPE svg PUBLIC "-//W3C//DTD SVG 20010904//EN"
 "http://www.w3.org/TR/2001/REC-SVG-20010904/DTD/svg10.dtd">
<svg version="1.0" xmlns="http://www.w3.org/2000/svg"
 width="1000.000000pt" height="1080.000000pt" viewBox="0 0 1000.000000 1080.000000"
 preserveAspectRatio="xMidYMid meet">

<g transform="translate(0.000000,1080.000000) scale(0.100000,-0.100000)"
fill="#000000" stroke="none">
<path d="M0 5400 l0 -5400 5000 0 5000 0 0 5400 0 5400 -5000 0 -5000 0 0
-5400z m5047 3427 c135 -146 236 -375 250 -563 l6 -82 -64 5 c-59 5 -66 3 -88
-20 -51 -55 -34 -152 38 -224 91 -91 198 -80 319 32 l54 50 -38 25 c-62 41
-79 72 -79 145 0 71 17 103 75 143 46 31 124 31 171 -1 43 -29 79 -91 79 -137
0 -76 -76 -170 -136 -170 -20 0 -24 -5 -24 -32 0 -41 30 -106 61 -135 34 -31
91 -53 136 -53 116 1 243 139 212 229 -15 44 -76 64 -120 41 -27 -15 -25 1 13
77 64 130 239 281 377 323 63 20 161 27 161 12 0 -4 -41 -48 -91 -97 -245
-242 -371 -490 -340 -667 9 -54 9 -63 -7 -74 -9 -7 -27 -10 -39 -7 -19 4 -23
0 -29 -34 -4 -21 -11 -46 -15 -55 -7 -13 -3 -21 16 -34 22 -14 25 -24 25 -70
l0 -53 -92 44 c-279 131 -549 189 -878 189 -329 0 -599 -58 -879 -190 -51 -24
-95 -44 -97 -44 -2 0 -4 25 -4 55 0 49 3 57 25 67 29 13 28 8 11 73 -12 44
-16 50 -38 47 -41 -4 -49 16 -37 86 32 179 -97 429 -343 669 -99 96 -101 103
-29 103 167 0 418 -190 495 -374 21 -50 20 -59 -3 -46 -44 23 -105 3 -120 -41
-23 -67 39 -163 134 -209 69 -34 156 -20 214 33 31 29 61 94 61 135 0 29 -3
32 -29 32 -33 0 -85 33 -115 73 -16 22 -21 43 -21 92 0 49 5 70 21 92 73 98
205 99 277 2 24 -34 33 -106 18 -152 -11 -33 -61 -87 -93 -100 -18 -8 86 -107
138 -132 85 -40 156 -29 223 37 74 73 91 169 40 225 -22 23 -29 25 -88 20
l-64 -5 6 82 c11 148 74 319 170 461 44 64 115 145 127 145 4 0 25 -19 47 -43z
m-1776 -1134 c28 -56 34 -80 37 -142 2 -69 0 -82 -31 -143 -18 -38 -32 -68
-30 -68 3 0 30 23 61 52 35 32 24 18 -28 -36 -47 -49 -80 -87 -75 -85 6 2 41
20 80 39 62 31 78 35 150 35 74 0 88 -3 158 -38 42 -21 77 -42 77 -47 0 -15
-82 -66 -133 -84 -86 -29 -206 -14 -311 40 l-49 25 -24 -23 c-23 -22 -142
-174 -193 -247 -23 -34 -23 -33 48 17 82 57 149 78 225 69 59 -8 177 -45 177
-57 0 -13 -91 -90 -135 -114 -35 -18 -56 -21 -160 -20 -85 0 -132 5 -162 16
l-42 17 -39 -67 c-58 -100 -119 -214 -131 -244 -8 -21 3 -14 50 33 67 67 117
93 194 104 45 6 176 -8 197 -21 14 -9 -24 -63 -79 -114 -75 -69 -129 -85 -280
-85 l-122 0 -35 -90 c-38 -101 -80 -244 -73 -251 2 -3 18 17 35 43 73 114 146
154 295 161 73 4 97 2 97 -8 0 -26 -65 -132 -99 -162 -64 -57 -211 -107 -313
-108 -36 0 -37 -1 -47 -52 -13 -61 -40 -291 -36 -296 2 -2 16 22 30 53 53 111
117 161 250 195 111 28 118 27 110 -12 -12 -59 -62 -154 -100 -191 -49 -47
-160 -103 -236 -119 l-59 -12 1 -111 c1 -60 4 -137 8 -170 l7 -60 13 45 c22
76 58 137 104 174 44 36 147 87 201 100 l29 7 -6 -68 c-13 -141 -102 -252
-260 -326 l-69 -32 7 -50 c7 -62 57 -276 62 -271 2 2 8 34 14 70 11 83 37 135
94 189 40 39 128 98 167 112 38 15 36 -157 -3 -240 -28 -60 -114 -153 -184
-200 -30 -20 -55 -40 -55 -45 0 -11 84 -219 107 -263 l18 -36 0 92 c1 102 15
143 83 225 40 50 130 124 142 117 14 -9 31 -97 31 -168 0 -61 -4 -80 -35 -142
-22 -44 -62 -101 -103 -145 l-67 -72 24 -42 c31 -58 131 -199 136 -193 2 2 -1
28 -7 57 -25 115 15 229 117 339 l51 55 22 -43 c34 -66 53 -169 42 -228 -18
-91 -50 -157 -135 -278 -11 -15 35 -73 139 -175 l66 -65 -28 60 c-24 51 -28
73 -28 145 0 80 3 90 43 170 49 99 67 124 81 115 22 -13 69 -92 91 -153 19
-52 22 -74 17 -130 -8 -79 -38 -179 -73 -239 l-24 -41 88 -64 c48 -36 103 -76
122 -89 l35 -24 -23 35 c-76 113 -86 213 -39 355 37 110 39 112 72 91 40 -26
113 -132 130 -189 21 -71 19 -168 -6 -266 -12 -46 -17 -87 -12 -91 10 -10 229
-120 238 -120 4 0 -11 20 -33 45 -22 25 -47 61 -57 80 -21 46 -36 140 -29 185
17 112 27 161 35 166 24 14 160 -110 194 -177 33 -65 49 -166 42 -269 l-7 -87
103 -31 c56 -17 116 -34 132 -37 l30 -7 -35 29 c-87 70 -123 136 -140 251 -10
76 -4 182 12 182 18 0 135 -64 174 -95 71 -59 125 -186 140 -336 l6 -66 82
-12 c44 -6 104 -11 131 -11 l50 0 -45 26 c-99 58 -151 131 -184 260 -20 77
-21 144 -3 144 25 0 122 -32 170 -56 26 -14 66 -43 88 -66 47 -49 112 -178
131 -260 12 -57 13 -58 48 -58 35 0 36 1 48 58 19 82 84 211 131 260 22 23 62
52 88 66 48 24 145 56 170 56 33 0 -3 -192 -52 -276 -27 -46 -83 -99 -141
-131 l-39 -22 50 -1 c28 0 87 5 131 11 l82 12 6 66 c15 143 58 253 126 321 35
35 164 110 188 110 16 0 22 -98 12 -178 -14 -106 -55 -188 -121 -238 -27 -21
-46 -40 -41 -42 5 -1 61 13 125 33 64 19 119 35 122 35 3 0 2 40 -1 88 -8 105
7 206 41 271 34 67 170 191 194 177 8 -5 25 -82 35 -162 7 -50 -8 -143 -29
-189 -10 -19 -35 -55 -57 -80 -22 -25 -37 -45 -34 -45 12 0 236 113 242 121 3
5 -5 48 -17 96 -29 118 -24 227 15 306 27 56 113 157 133 157 10 0 39 -64 64
-145 7 -22 13 -74 13 -115 0 -78 -15 -123 -66 -200 l-23 -35 35 24 c19 13 74
53 122 89 l88 64 -24 41 c-44 76 -70 174 -70 267 0 73 3 93 27 141 15 31 41
71 57 90 28 33 29 34 44 14 9 -11 35 -58 58 -105 40 -79 42 -91 43 -170 0 -72
-4 -94 -28 -145 l-28 -60 76 75 c105 103 141 149 129 165 -85 121 -117 187
-134 277 -12 59 2 140 37 217 l24 56 52 -55 c107 -115 147 -237 114 -358 -12
-45 -12 -50 0 -40 19 16 153 218 153 231 0 5 -29 40 -64 77 -89 95 -137 194
-138 283 0 67 18 163 32 172 12 7 102 -66 142 -117 68 -82 82 -123 83 -225 l0
-92 18 36 c23 44 107 252 107 263 0 5 -25 25 -55 45 -70 47 -156 140 -185 201
-25 53 -39 207 -22 232 12 18 62 -7 147 -71 86 -66 133 -143 135 -227 3 -84
16 -71 42 42 15 62 30 136 33 163 l7 50 -69 32 c-158 74 -247 185 -260 326
l-6 68 29 -7 c54 -13 157 -64 201 -100 46 -37 82 -98 104 -174 l13 -45 7 60
c4 33 7 110 8 170 l1 111 -59 12 c-76 16 -187 72 -236 119 -38 37 -88 132
-100 191 -8 39 -1 40 110 12 131 -33 189 -78 243 -185 l31 -60 0 45 c1 41 -20
205 -35 273 -5 23 -10 27 -42 27 -63 0 -174 28 -239 60 -71 35 -111 77 -154
162 l-31 61 104 -5 c155 -8 226 -46 300 -161 17 -26 33 -46 35 -43 7 6 -44
175 -79 266 l-29 75 -122 0 c-151 0 -205 16 -280 85 -55 51 -93 105 -79 114
21 13 152 27 197 21 77 -11 127 -37 194 -104 47 -47 58 -54 50 -33 -12 30 -73
144 -131 244 l-39 67 -42 -17 c-30 -11 -77 -16 -162 -16 -104 -1 -125 2 -160
20 -44 24 -135 101 -135 114 0 12 118 49 177 57 76 9 143 -12 225 -69 71 -50
71 -51 48 -17 -51 73 -170 225 -193 247 l-24 23 -49 -25 c-104 -54 -222 -69
-310 -40 -52 17 -125 61 -131 81 -2 6 31 29 73 50 71 35 85 38 160 38 74 0 88
-3 154 -37 41 -21 75 -36 77 -35 1 2 -35 40 -81 85 -72 71 -88 82 -118 82 -62
0 -138 29 -183 71 -40 37 -113 155 -102 165 8 9 130 -17 174 -36 45 -20 93
-77 123 -146 15 -34 114 -142 139 -152 5 -1 -7 27 -26 64 -54 107 -44 215 31
332 l27 44 26 -34 c90 -118 97 -239 26 -401 l-26 -58 29 -33 c16 -19 58 -69
94 -112 36 -43 75 -89 87 -103 l22 -26 -20 65 c-26 81 -21 147 17 221 29 58
91 139 106 139 5 0 21 -26 36 -57 21 -47 26 -73 26 -138 1 -70 -3 -88 -31
-148 -18 -38 -47 -86 -63 -107 l-31 -39 44 -68 c24 -38 63 -104 86 -146 24
-42 44 -77 46 -77 1 0 2 37 1 83 -1 69 3 90 24 130 26 52 144 171 163 164 19
-6 35 -71 36 -147 1 -97 -32 -170 -118 -263 l-62 -66 21 -42 c12 -23 37 -81
55 -128 17 -47 36 -95 40 -106 6 -15 10 -4 16 42 4 34 15 76 24 93 25 49 95
112 164 149 74 39 75 38 69 -86 -4 -102 -19 -140 -85 -213 -38 -42 -116 -103
-144 -112 -5 -2 -1 -45 10 -98 11 -52 23 -122 27 -155 7 -62 23 -110 24 -70 0
38 35 117 68 156 33 38 164 110 225 123 24 6 27 4 27 -21 -1 -55 -29 -162 -54
-202 -34 -53 -112 -114 -197 -154 l-69 -32 0 -165 1 -165 29 56 c36 71 92 121
165 148 54 20 175 43 184 35 10 -9 -22 -114 -49 -162 -46 -80 -152 -148 -274
-174 -28 -6 -56 -15 -62 -20 -6 -5 -15 -36 -18 -71 -4 -34 -16 -101 -25 -148
l-18 -87 61 63 c49 51 72 67 116 80 60 18 218 29 238 17 18 -12 -38 -119 -89
-172 -63 -65 -187 -110 -300 -110 l-57 0 -30 -87 c-16 -49 -39 -112 -51 -141
-20 -49 -20 -52 -3 -43 10 5 25 17 32 26 8 9 32 26 54 38 35 19 57 22 151 22
126 0 185 -10 185 -30 0 -24 -83 -118 -133 -152 -69 -47 -211 -70 -321 -53
-47 7 -49 6 -65 -23 -9 -16 -41 -70 -73 -121 -31 -50 -55 -92 -53 -94 2 -2 20
8 42 22 52 34 122 50 194 43 72 -6 219 -55 219 -73 0 -21 -92 -95 -155 -125
-53 -26 -70 -29 -155 -28 -60 0 -121 7 -165 19 l-70 19 -40 -47 c-22 -25 -65
-73 -95 -106 -30 -33 -47 -56 -37 -53 77 28 134 39 179 33 65 -9 160 -45 227
-86 l53 -33 -23 -19 c-72 -56 -180 -98 -251 -98 -61 0 -177 29 -246 62 -61 29
-63 29 -86 11 -179 -139 -207 -164 -180 -156 16 4 65 8 109 8 71 0 89 -4 145
-32 36 -18 93 -56 128 -84 l63 -52 -28 -17 c-93 -55 -213 -73 -308 -45 -73 21
-167 68 -218 108 l-39 30 -121 -63 c-139 -72 -158 -85 -107 -76 48 8 142 -9
198 -36 47 -23 180 -145 200 -185 11 -20 9 -23 -26 -35 -22 -8 -81 -13 -147
-13 -109 0 -111 0 -185 40 -42 22 -106 69 -145 106 l-70 66 -139 -46 -138 -47
75 -12 c88 -15 140 -45 212 -123 48 -50 115 -154 115 -176 0 -16 -111 -23
-181 -12 -121 19 -233 96 -325 225 -25 35 -48 64 -52 64 -3 0 -42 -6 -86 -14
-45 -8 -103 -18 -131 -21 l-50 -7 56 -22 c88 -34 127 -64 179 -137 47 -69 109
-213 96 -226 -14 -14 -171 17 -233 46 -95 45 -199 164 -250 286 l-18 45 -105
-1 -105 0 -37 -77 c-57 -118 -134 -204 -221 -247 -70 -34 -227 -68 -243 -52
-13 13 49 157 96 226 52 73 91 103 179 137 l56 22 -50 7 c-27 3 -86 13 -131
21 -44 8 -83 14 -86 14 -4 0 -27 -29 -52 -64 -92 -129 -204 -206 -325 -225
-70 -11 -181 -4 -181 12 0 22 67 126 115 176 72 78 124 108 212 123 l75 12
-138 47 -139 46 -70 -66 c-39 -37 -103 -84 -145 -106 -74 -40 -76 -40 -185
-40 -66 0 -125 5 -147 13 -35 12 -37 15 -26 35 20 40 153 162 200 185 56 27
150 44 198 36 51 -9 32 4 -106 76 l-121 62 -49 -35 c-184 -131 -361 -150 -517
-57 l-28 17 63 52 c124 102 254 142 363 112 21 -6 40 -9 41 -8 2 1 -34 30 -79
65 -45 34 -96 74 -114 88 l-32 26 -63 -30 c-69 -33 -185 -62 -246 -62 -71 0
-179 42 -251 98 l-23 19 53 33 c67 41 162 77 227 86 45 6 102 -5 179 -33 10
-3 -7 20 -37 53 -30 33 -73 81 -95 106 l-40 47 -70 -19 c-44 -12 -105 -19
-165 -19 -84 -1 -102 2 -155 27 -76 36 -165 115 -149 132 21 21 147 61 210 67
74 7 144 -8 197 -43 22 -14 40 -24 42 -22 2 2 -22 44 -53 94 -32 51 -65 106
-74 123 -9 17 -23 29 -30 27 -67 -22 -240 -9 -314 23 -22 10 -57 33 -78 51
-38 34 -96 111 -96 128 0 14 104 32 184 32 90 0 135 -13 188 -53 69 -53 70
-52 47 5 -12 29 -35 92 -51 141 l-30 87 -57 0 c-113 0 -237 45 -300 110 -51
53 -107 160 -89 172 21 12 178 1 238 -17 44 -14 67 -30 116 -81 l61 -63 -18
87 c-9 48 -21 115 -25 149 -3 35 -12 66 -18 71 -6 5 -35 14 -65 20 -78 18
-177 68 -223 114 -45 45 -84 122 -94 185 l-6 41 43 -5 c160 -18 255 -75 312
-188 l26 -50 0 165 1 165 -78 37 c-142 69 -208 147 -231 273 -18 95 -16 106
17 99 60 -13 191 -85 224 -123 33 -39 68 -118 68 -156 1 -40 17 8 24 70 4 33
16 102 26 154 11 52 19 95 18 96 -2 2 -19 10 -38 20 -47 24 -151 131 -175 180
-13 28 -21 67 -23 128 -6 124 -5 125 69 86 69 -37 139 -100 164 -149 9 -17 20
-59 24 -93 6 -46 10 -57 16 -42 4 11 23 58 40 105 18 47 42 105 53 129 l21 45
-61 65 c-85 91 -118 164 -117 261 1 76 17 141 36 147 19 7 133 -108 161 -161
23 -44 27 -62 26 -133 -1 -46 0 -83 1 -83 2 0 22 35 46 77 23 42 62 108 86
146 l44 68 -31 39 c-16 21 -45 69 -63 107 -28 60 -32 78 -31 148 0 65 5 91 26
138 15 31 31 57 36 57 15 0 77 -81 106 -139 38 -74 43 -140 17 -221 l-20 -65
22 26 c12 14 51 60 87 103 36 43 78 93 94 112 l29 33 -26 58 c-36 82 -47 129
-47 201 0 69 15 114 63 184 37 55 41 54 88 -39z m419 -19 c0 -3 -14 -33 -31
-65 -42 -78 -103 -134 -170 -153 -49 -15 -119 -22 -119 -12 0 15 43 98 69 133
36 50 72 70 155 88 69 15 96 18 96 9z m1485 -124 c921 -87 1649 -775 1776
-1680 18 -125 15 -414 -5 -542 -64 -412 -258 -792 -553 -1084 -770 -764 -2016
-764 -2786 0 -295 292 -489 672 -553 1084 -20 128 -23 417 -5 542 90 643 494
1200 1076 1485 325 159 697 228 1050 195z m-4841 -7093 c52 -148 43 -145 85
-27 30 84 42 106 59 108 20 3 19 -1 -15 -95 -19 -54 -40 -113 -46 -131 -9 -27
-15 -32 -36 -30 -22 3 -29 16 -68 123 -24 65 -43 123 -43 127 0 4 8 8 18 8 12
0 25 -22 46 -83z m1127 54 c34 -34 37 -51 9 -51 -11 0 -20 4 -20 10 0 5 -11
17 -25 26 -34 22 -78 5 -73 -29 2 -17 15 -26 57 -39 29 -10 59 -23 67 -29 20
-17 17 -73 -5 -93 -44 -40 -138 -28 -160 20 -15 33 -14 34 8 34 10 0 21 -7 25
-15 16 -41 106 -38 106 4 0 25 -17 38 -64 46 -75 15 -103 83 -50 124 39 31 89
28 125 -8z m609 -43 l0 -72 39 38 c23 22 46 36 57 34 15 -3 12 -9 -19 -39
l-37 -36 41 -56 c38 -54 39 -57 17 -57 -15 1 -32 14 -50 40 -15 22 -32 40 -38
40 -5 0 -10 -18 -10 -40 0 -33 -3 -40 -20 -40 -19 0 -20 7 -20 130 0 123 1
130 20 130 18 0 20 -7 20 -72z m-1150 21 c0 -12 7 -19 20 -19 11 0 20 -7 20
-15 0 -8 -9 -15 -20 -15 -18 0 -20 -7 -20 -65 0 -58 2 -65 20 -65 11 0 20 -7
20 -16 0 -11 -8 -14 -32 -12 l-33 3 -3 74 c-3 63 -6 74 -22 78 -26 7 -26 33 0
33 13 0 20 7 20 18 0 10 3 22 6 25 11 10 24 -3 24 -24z m650 1 c0 -13 7 -20
20 -20 11 0 20 -7 20 -15 0 -8 -9 -15 -20 -15 -18 0 -20 -7 -20 -65 0 -58 2
-65 20 -65 11 0 20 -7 20 -16 0 -11 -8 -14 -32 -12 l-33 3 -3 74 c-3 63 -6 74
-22 78 -26 7 -26 33 0 33 13 0 20 7 20 20 0 11 7 20 15 20 8 0 15 -9 15 -20z
m-945 -45 c14 -13 25 -36 25 -50 0 -24 -2 -25 -65 -25 -69 0 -82 -12 -49 -44
20 -20 48 -20 68 0 9 8 24 14 34 12 30 -6 -31 -58 -68 -58 -46 0 -90 47 -90
95 0 79 92 124 145 70z m189 4 c27 -22 35 -49 13 -49 -7 0 -20 9 -30 20 -34
40 -87 12 -87 -46 0 -58 52 -85 87 -44 20 23 43 26 43 6 0 -22 -49 -56 -82
-56 -19 0 -40 10 -59 29 -81 81 25 211 115 140z m317 -8 c21 -22 29 -39 29
-66 0 -48 -44 -95 -90 -95 -46 0 -90 47 -90 95 0 48 44 95 90 95 22 0 41 -9
61 -29z m99 19 c0 -7 6 -7 19 0 29 15 41 12 41 -10 0 -13 -7 -20 -18 -20 -31
0 -42 -22 -42 -87 0 -56 -2 -63 -20 -63 -19 0 -20 7 -20 95 0 88 1 95 20 95
11 0 20 -5 20 -10z m551 -19 c21 -22 29 -39 29 -66 0 -48 -44 -95 -90 -95 -46
0 -90 47 -90 95 0 48 44 95 90 95 22 0 41 -9 61 -29z m194 4 c14 -13 25 -29
25 -35 0 -17 -24 -11 -43 10 -33 39 -87 12 -87 -43 0 -58 53 -87 87 -47 20 23
43 26 43 6 0 -22 -49 -56 -82 -56 -44 0 -88 48 -88 95 0 79 92 124 145 70z
m6615 17 c0 -25 -69 -207 -80 -210 -9 -3 -11 1 -6 14 4 11 21 61 38 112 17 50
34 92 39 92 5 0 9 -4 9 -8z m-1856 -70 c11 -34 23 -62 27 -62 4 0 17 29 29 65
13 39 27 65 36 65 11 0 10 -9 -5 -47 -10 -27 -24 -65 -30 -85 -21 -63 -42 -50
-77 48 -26 69 -29 84 -16 82 10 -2 24 -28 36 -66z m760 52 c9 -8 16 -20 16
-25 0 -14 -20 -11 -36 6 -18 17 -24 18 -43 6 -23 -15 -6 -36 39 -50 38 -11 41
-14 38 -44 -2 -24 -10 -34 -29 -41 -36 -12 -76 0 -84 25 -10 30 2 36 25 11 24
-26 43 -28 60 -7 16 19 7 29 -42 44 -22 7 -40 21 -43 32 -15 46 63 79 99 43z
m406 -31 l0 -47 30 29 c35 34 54 26 21 -9 l-23 -25 27 -35 c35 -46 11 -49 -27
-4 l-27 33 -1 -32 c0 -23 -5 -33 -15 -33 -12 0 -15 16 -15 85 0 69 3 85 15 85
11 0 15 -12 15 -47z m801 37 c31 -17 24 -59 -18 -102 l-37 -38 42 0 c23 0 42
-4 42 -10 0 -6 -27 -10 -60 -10 -37 0 -60 4 -60 11 0 6 21 30 47 53 33 30 45
47 40 59 -11 29 -38 33 -58 9 -20 -26 -29 -28 -29 -8 0 37 51 57 91 36z m149
0 c0 -5 -18 -10 -40 -10 -32 0 -40 -4 -40 -18 0 -15 6 -18 29 -14 21 3 33 -2
45 -19 21 -31 20 -55 -4 -79 -26 -26 -62 -26 -85 0 -23 26 -11 39 14 16 28
-26 61 -13 61 24 0 34 -28 48 -59 28 -27 -17 -31 -10 -24 40 l6 42 48 0 c27 0
49 -4 49 -10z m140 0 c0 -5 -18 -10 -40 -10 -32 0 -40 -4 -40 -18 0 -15 6 -18
29 -14 21 3 33 -2 45 -19 21 -31 20 -55 -4 -79 -26 -26 -62 -26 -85 0 -23 26
-11 39 14 16 28 -26 61 -13 61 24 0 34 -28 48 -59 28 -27 -17 -31 -10 -24 40
l6 42 48 0 c27 0 49 -4 49 -10z m145 -10 c-16 -51 -66 -150 -76 -150 -12 0 -6
24 27 94 l24 51 -50 3 c-73 4 -61 22 16 22 61 0 65 -1 59 -20z m121 3 c20 -20
1 -32 -21 -13 -19 15 -40 7 -55 -20 -11 -20 -10 -21 9 -11 42 23 81 1 81 -46
0 -57 -61 -82 -100 -43 -32 32 -23 117 14 142 19 13 54 9 72 -9z m140 -4 c43
-47 14 -149 -43 -149 -38 0 -63 34 -63 85 0 75 62 112 106 64z m154 -6 c17
-22 21 -37 17 -66 -15 -108 -127 -101 -127 8 0 80 66 114 110 58z m146 10 c20
-20 1 -32 -21 -13 -19 15 -40 7 -55 -20 -11 -20 -10 -21 9 -11 42 23 81 1 81
-46 0 -57 -61 -82 -100 -43 -32 32 -23 117 14 142 19 13 54 9 72 -9z m-2556
-8 c0 -8 7 -15 15 -15 8 0 15 -4 15 -10 0 -5 -7 -10 -15 -10 -11 0 -15 -12
-15 -45 0 -33 4 -45 15 -45 8 0 15 -4 15 -10 0 -16 -47 -11 -54 6 -3 9 -6 33
-6 54 0 21 -6 41 -12 44 -10 5 -10 7 0 12 6 3 12 12 12 20 0 8 7 14 15 14 8 0
15 -7 15 -15z m430 0 c0 -8 7 -15 15 -15 8 0 15 -4 15 -10 0 -5 -7 -10 -15
-10 -11 0 -15 -12 -15 -45 0 -33 4 -45 15 -45 8 0 15 -4 15 -10 0 -16 -47 -11
-54 6 -3 9 -6 33 -6 54 0 21 -6 41 -12 44 -10 5 -10 7 0 12 6 3 12 12 12 20 0
8 7 14 15 14 8 0 15 -7 15 -15z m-638 -32 c10 -9 18 -24 18 -35 0 -15 -8 -18
-45 -18 -47 0 -56 -9 -30 -30 13 -11 20 -11 40 0 31 16 42 8 20 -14 -36 -36
-95 -6 -95 47 0 57 52 86 92 50z m132 1 c31 -31 16 -46 -16 -17 -25 23 -53 6
-53 -32 0 -38 28 -55 53 -32 32 29 47 14 16 -17 -35 -36 -94 -6 -94 47 0 57
58 88 94 51z m216 -4 c56 -56 -23 -146 -82 -93 -10 9 -18 30 -18 46 0 60 59
88 100 47z m100 9 c0 -4 -9 -13 -20 -19 -15 -8 -20 -21 -20 -55 0 -33 -4 -45
-15 -45 -12 0 -15 14 -15 64 l0 64 35 0 c19 0 35 -4 35 -9z m325 -3 c13 -9 19
-26 19 -51 0 -25 -6 -42 -19 -51 -42 -31 -95 -4 -95 49 0 56 51 85 95 53z
m129 -2 c31 -31 16 -46 -16 -17 -25 23 -53 6 -53 -32 0 -38 28 -55 53 -32 32
29 47 14 16 -17 -35 -36 -94 -6 -94 47 0 57 58 88 94 51z m310 0 c31 -31 16
-46 -16 -17 -25 23 -53 6 -53 -32 0 -38 28 -55 53 -32 32 29 47 14 16 -17 -35
-36 -94 -6 -94 47 0 57 58 88 94 51z m136 -4 c56 -56 -23 -146 -82 -93 -10 9
-18 30 -18 46 0 60 59 88 100 47z m198 7 c14 -10 17 -117 2 -117 -5 0 -10 20
-10 44 0 26 -6 48 -15 56 -25 20 -45 -5 -45 -56 0 -62 -18 -55 -22 9 -3 44 -6
52 -23 52 -17 0 -20 -8 -23 -52 -2 -38 -7 -53 -18 -53 -11 0 -14 15 -14 64 l0
64 78 -2 c42 -1 83 -5 90 -9z m-448 -102 c0 -8 -7 -15 -15 -15 -8 0 -15 7 -15
15 0 8 7 15 15 15 8 0 15 -7 15 -15z"/>
<path d="M4941 7844 c-55 -70 10 -166 92 -135 31 12 61 69 50 98 -23 65 -103
86 -142 37z"/>
<path d="M4430 7740 c-27 -27 -26 -75 2 -94 30 -21 54 -20 78 4 27 27 25 62
-3 88 -29 27 -51 28 -77 2z"/>
<path d="M5485 7735 c-14 -13 -25 -31 -25 -40 0 -9 11 -27 25 -40 13 -14 31
-25 40 -25 9 0 27 11 40 25 14 13 25 31 25 40 0 9 -11 27 -25 40 -13 14 -31
25 -40 25 -9 0 -27 -11 -40 -25z"/>
<path d="M4854 7259 c-449 -40 -872 -262 -1149 -604 -181 -223 -291 -458 -347
-737 -32 -164 -32 -444 0 -606 121 -603 544 -1077 1127 -1265 956 -308 1959
280 2157 1265 32 161 32 442 0 606 -119 596 -534 1067 -1111 1261 -121 40
-258 68 -401 81 -127 11 -145 11 -276 -1z m188 -529 c14 -30 171 -410 347
-844 352 -862 381 -928 442 -1006 50 -63 99 -87 198 -96 58 -6 71 -10 69 -23
-2 -10 -19 -18 -48 -23 -46 -7 -597 -1 -637 8 -31 6 -29 20 4 36 14 7 30 20
35 28 7 11 -23 99 -103 305 -62 160 -117 293 -123 297 -6 4 -147 8 -312 8
-229 0 -304 -3 -312 -12 -13 -16 -156 -380 -176 -449 -18 -60 -20 -112 -6
-139 13 -24 62 -40 121 -40 42 0 49 -3 49 -20 0 -11 -6 -20 -12 -20 -147 -5
-658 -1 -667 4 -27 17 -1 31 76 42 99 14 139 37 186 107 23 33 165 371 392
930 346 855 376 928 398 955 21 27 51 8 79 -48z"/>
<path d="M4787 5912 c-70 -187 -127 -344 -127 -350 0 -9 68 -12 253 -12 140 0
256 2 259 5 6 7 -244 695 -252 695 -4 0 -64 -152 -133 -338z"/>
<path d="M530 425 c-18 -22 -9 -27 46 -23 46 3 47 4 30 21 -22 21 -59 22 -76
2z"/>
<path d="M1037 422 c-34 -38 -10 -112 36 -112 26 0 47 29 47 65 0 58 -49 85
-83 47z"/>
<path d="M1687 422 c-34 -38 -10 -112 36 -112 26 0 47 29 47 65 0 58 -49 85
-83 47z"/>
<path d="M9190 375 c-26 -31 13 -82 44 -56 19 16 21 42 4 59 -16 16 -33 15
-48 -3z"/>
<path d="M9330 425 c-18 -22 -17 -83 3 -102 26 -27 51 -6 55 46 5 61 -28 92
-58 56z"/>
<path d="M9479 424 c-18 -21 -15 -83 5 -103 25 -25 50 -3 54 48 5 62 -28 92
-59 55z"/>
<path d="M9630 375 c-26 -31 13 -82 44 -56 19 16 21 42 4 59 -16 16 -33 15
-48 -3z"/>
<path d="M6870 385 c-11 -13 -7 -15 25 -15 32 0 36 2 25 15 -7 8 -18 15 -25
15 -7 0 -18 -7 -25 -15z"/>
<path d="M7210 386 c-15 -19 -9 -56 12 -69 34 -22 66 41 36 71 -16 16 -33 15
-48 -2z"/>
<path d="M7638 376 c-12 -28 -5 -54 17 -62 35 -14 61 46 33 74 -19 19 -37 14
-50 -12z"/>
<path d="M8210 385 c-15 -18 -5 -64 15 -72 35 -13 61 47 33 75 -16 16 -33 15
-48 -3z"/>
</g>
</svg>
